<?xml version="1.0" encoding="UTF-8" standalone="no"?>
<!-- Created with Inkscape (http://www.inkscape.org/) -->

<svg
   xmlns:dc="http://purl.org/dc/elements/1.1/"
   xmlns:cc="http://creativecommons.org/ns#"
   xmlns:rdf="http://www.w3.org/1999/02/22-rdf-syntax-ns#"
   xmlns:svg="http://www.w3.org/2000/svg"
   xmlns="http://www.w3.org/2000/svg"
   xmlns:xlink="http://www.w3.org/1999/xlink"
   xmlns:sodipodi="http://sodipodi.sourceforge.net/DTD/sodipodi-0.dtd"
   xmlns:inkscape="http://www.inkscape.org/namespaces/inkscape"
   width="744.09448819"
   height="1052.3622047"
   id="svg2"
   version="1.1"
   inkscape:version="0.48.0 r9654"
   sodipodi:docname="tuna.0.1.0b.svg">
  <defs
     id="defs4">
    <linearGradient
       inkscape:collect="always"
       id="linearGradient3605">
      <stop
         style="stop-color:#162d50;stop-opacity:1;"
         offset="0"
         id="stop3607" />
      <stop
         style="stop-color:#162d50;stop-opacity:0;"
         offset="1"
         id="stop3609" />
    </linearGradient>
    <inkscape:perspective
       sodipodi:type="inkscape:persp3d"
       inkscape:vp_x="0 : 526.18109 : 1"
       inkscape:vp_y="0 : 1000 : 0"
       inkscape:vp_z="744.09448 : 526.18109 : 1"
       inkscape:persp3d-origin="372.04724 : 350.78739 : 1"
       id="perspective10" />
    <inkscape:perspective
       id="perspective2832"
       inkscape:persp3d-origin="0.5 : 0.33333333 : 1"
       inkscape:vp_z="1 : 0.5 : 1"
       inkscape:vp_y="0 : 1000 : 0"
       inkscape:vp_x="0 : 0.5 : 1"
       sodipodi:type="inkscape:persp3d" />
    <inkscape:perspective
       id="perspective3641"
       inkscape:persp3d-origin="0.5 : 0.33333333 : 1"
       inkscape:vp_z="1 : 0.5 : 1"
       inkscape:vp_y="0 : 1000 : 0"
       inkscape:vp_x="0 : 0.5 : 1"
       sodipodi:type="inkscape:persp3d" />
    <inkscape:perspective
       id="perspective3697"
       inkscape:persp3d-origin="0.5 : 0.33333333 : 1"
       inkscape:vp_z="1 : 0.5 : 1"
       inkscape:vp_y="0 : 1000 : 0"
       inkscape:vp_x="0 : 0.5 : 1"
       sodipodi:type="inkscape:persp3d" />
    <inkscape:perspective
       id="perspective3744"
       inkscape:persp3d-origin="0.5 : 0.33333333 : 1"
       inkscape:vp_z="1 : 0.5 : 1"
       inkscape:vp_y="0 : 1000 : 0"
       inkscape:vp_x="0 : 0.5 : 1"
       sodipodi:type="inkscape:persp3d" />
    <inkscape:perspective
       id="perspective3766"
       inkscape:persp3d-origin="0.5 : 0.33333333 : 1"
       inkscape:vp_z="1 : 0.5 : 1"
       inkscape:vp_y="0 : 1000 : 0"
       inkscape:vp_x="0 : 0.5 : 1"
       sodipodi:type="inkscape:persp3d" />
    <inkscape:perspective
       id="perspective3788"
       inkscape:persp3d-origin="0.5 : 0.33333333 : 1"
       inkscape:vp_z="1 : 0.5 : 1"
       inkscape:vp_y="0 : 1000 : 0"
       inkscape:vp_x="0 : 0.5 : 1"
       sodipodi:type="inkscape:persp3d" />
    <inkscape:perspective
       id="perspective2864"
       inkscape:persp3d-origin="0.5 : 0.33333333 : 1"
       inkscape:vp_z="1 : 0.5 : 1"
       inkscape:vp_y="0 : 1000 : 0"
       inkscape:vp_x="0 : 0.5 : 1"
       sodipodi:type="inkscape:persp3d" />
    <inkscape:perspective
       id="perspective3652"
       inkscape:persp3d-origin="0.5 : 0.33333333 : 1"
       inkscape:vp_z="1 : 0.5 : 1"
       inkscape:vp_y="0 : 1000 : 0"
       inkscape:vp_x="0 : 0.5 : 1"
       sodipodi:type="inkscape:persp3d" />
    <linearGradient
       inkscape:collect="always"
       xlink:href="#linearGradient3605"
       id="linearGradient3611"
       x1="-288.4747"
       y1="565.66802"
       x2="-145.59207"
       y2="565.66802"
       gradientUnits="userSpaceOnUse" />
    <inkscape:perspective
       id="perspective3657"
       inkscape:persp3d-origin="0.5 : 0.33333333 : 1"
       inkscape:vp_z="1 : 0.5 : 1"
       inkscape:vp_y="0 : 1000 : 0"
       inkscape:vp_x="0 : 0.5 : 1"
       sodipodi:type="inkscape:persp3d" />
    <linearGradient
       inkscape:collect="always"
       id="linearGradient3605-7">
      <stop
         style="stop-color:#162d50;stop-opacity:1;"
         offset="0"
         id="stop3607-4" />
      <stop
         style="stop-color:#162d50;stop-opacity:0;"
         offset="1"
         id="stop3609-0" />
    </linearGradient>
    <linearGradient
       inkscape:collect="always"
       xlink:href="#linearGradient3605-7"
       id="linearGradient3647-8"
       gradientUnits="userSpaceOnUse"
       gradientTransform="translate(-40.5,-71.5)"
       x1="-288.4747"
       y1="565.66803"
       x2="-145.59207"
       y2="565.66803" />
    <inkscape:perspective
       id="perspective3796"
       inkscape:persp3d-origin="0.5 : 0.33333333 : 1"
       inkscape:vp_z="1 : 0.5 : 1"
       inkscape:vp_y="0 : 1000 : 0"
       inkscape:vp_x="0 : 0.5 : 1"
       sodipodi:type="inkscape:persp3d" />
    <inkscape:perspective
       id="perspective3818"
       inkscape:persp3d-origin="0.5 : 0.33333333 : 1"
       inkscape:vp_z="1 : 0.5 : 1"
       inkscape:vp_y="0 : 1000 : 0"
       inkscape:vp_x="0 : 0.5 : 1"
       sodipodi:type="inkscape:persp3d" />
    <inkscape:perspective
       id="perspective3840"
       inkscape:persp3d-origin="0.5 : 0.33333333 : 1"
       inkscape:vp_z="1 : 0.5 : 1"
       inkscape:vp_y="0 : 1000 : 0"
       inkscape:vp_x="0 : 0.5 : 1"
       sodipodi:type="inkscape:persp3d" />
    <inkscape:perspective
       id="perspective3905"
       inkscape:persp3d-origin="0.5 : 0.33333333 : 1"
       inkscape:vp_z="1 : 0.5 : 1"
       inkscape:vp_y="0 : 1000 : 0"
       inkscape:vp_x="0 : 0.5 : 1"
       sodipodi:type="inkscape:persp3d" />
    <linearGradient
       inkscape:collect="always"
       id="linearGradient3605-5">
      <stop
         style="stop-color:#162d50;stop-opacity:1;"
         offset="0"
         id="stop3607-2" />
      <stop
         style="stop-color:#162d50;stop-opacity:0;"
         offset="1"
         id="stop3609-7" />
    </linearGradient>
    <linearGradient
       inkscape:collect="always"
       xlink:href="#linearGradient3605-5"
       id="linearGradient3647-4"
       gradientUnits="userSpaceOnUse"
       gradientTransform="translate(-40.5,-71.5)"
       x1="-288.4747"
       y1="565.66803"
       x2="-145.59207"
       y2="565.66803" />
    <inkscape:perspective
       id="perspective4061"
       inkscape:persp3d-origin="0.5 : 0.33333333 : 1"
       inkscape:vp_z="1 : 0.5 : 1"
       inkscape:vp_y="0 : 1000 : 0"
       inkscape:vp_x="0 : 0.5 : 1"
       sodipodi:type="inkscape:persp3d" />
    <inkscape:perspective
       id="perspective4093"
       inkscape:persp3d-origin="0.5 : 0.33333333 : 1"
       inkscape:vp_z="1 : 0.5 : 1"
       inkscape:vp_y="0 : 1000 : 0"
       inkscape:vp_x="0 : 0.5 : 1"
       sodipodi:type="inkscape:persp3d" />
    <inkscape:perspective
       id="perspective4140"
       inkscape:persp3d-origin="0.5 : 0.33333333 : 1"
       inkscape:vp_z="1 : 0.5 : 1"
       inkscape:vp_y="0 : 1000 : 0"
       inkscape:vp_x="0 : 0.5 : 1"
       sodipodi:type="inkscape:persp3d" />
    <inkscape:perspective
       id="perspective2878"
       inkscape:persp3d-origin="0.5 : 0.33333333 : 1"
       inkscape:vp_z="1 : 0.5 : 1"
       inkscape:vp_y="0 : 1000 : 0"
       inkscape:vp_x="0 : 0.5 : 1"
       sodipodi:type="inkscape:persp3d" />
    <inkscape:perspective
       id="perspective3727"
       inkscape:persp3d-origin="0.5 : 0.33333333 : 1"
       inkscape:vp_z="1 : 0.5 : 1"
       inkscape:vp_y="0 : 1000 : 0"
       inkscape:vp_x="0 : 0.5 : 1"
       sodipodi:type="inkscape:persp3d" />
    <inkscape:perspective
       id="perspective3783"
       inkscape:persp3d-origin="0.5 : 0.33333333 : 1"
       inkscape:vp_z="1 : 0.5 : 1"
       inkscape:vp_y="0 : 1000 : 0"
       inkscape:vp_x="0 : 0.5 : 1"
       sodipodi:type="inkscape:persp3d" />
    <inkscape:perspective
       id="perspective2933"
       inkscape:persp3d-origin="0.5 : 0.33333333 : 1"
       inkscape:vp_z="1 : 0.5 : 1"
       inkscape:vp_y="0 : 1000 : 0"
       inkscape:vp_x="0 : 0.5 : 1"
       sodipodi:type="inkscape:persp3d" />
    <inkscape:perspective
       id="perspective2901"
       inkscape:persp3d-origin="0.5 : 0.33333333 : 1"
       inkscape:vp_z="1 : 0.5 : 1"
       inkscape:vp_y="0 : 1000 : 0"
       inkscape:vp_x="0 : 0.5 : 1"
       sodipodi:type="inkscape:persp3d" />
    <inkscape:perspective
       id="perspective3687"
       inkscape:persp3d-origin="0.5 : 0.33333333 : 1"
       inkscape:vp_z="1 : 0.5 : 1"
       inkscape:vp_y="0 : 1000 : 0"
       inkscape:vp_x="0 : 0.5 : 1"
       sodipodi:type="inkscape:persp3d" />
    <inkscape:perspective
       id="perspective3709"
       inkscape:persp3d-origin="0.5 : 0.33333333 : 1"
       inkscape:vp_z="1 : 0.5 : 1"
       inkscape:vp_y="0 : 1000 : 0"
       inkscape:vp_x="0 : 0.5 : 1"
       sodipodi:type="inkscape:persp3d" />
    <inkscape:perspective
       id="perspective3731"
       inkscape:persp3d-origin="0.5 : 0.33333333 : 1"
       inkscape:vp_z="1 : 0.5 : 1"
       inkscape:vp_y="0 : 1000 : 0"
       inkscape:vp_x="0 : 0.5 : 1"
       sodipodi:type="inkscape:persp3d" />
  </defs>
  <sodipodi:namedview
     id="base"
     pagecolor="#ffffff"
     bordercolor="#666666"
     borderopacity="1.0"
     inkscape:pageopacity="0.0"
     inkscape:pageshadow="2"
     inkscape:zoom="4"
     inkscape:cx="-593.80962"
     inkscape:cy="591.33671"
     inkscape:document-units="px"
     inkscape:current-layer="layer1"
     showgrid="false"
     inkscape:window-width="1440"
     inkscape:window-height="848"
     inkscape:window-x="-8"
     inkscape:window-y="-8"
     inkscape:window-maximized="1" />
  <metadata
     id="metadata7">
    <rdf:RDF>
      <cc:Work
         rdf:about="">
        <dc:format>image/svg+xml</dc:format>
        <dc:type
           rdf:resource="http://purl.org/dc/dcmitype/StillImage" />
        <dc:title />
      </cc:Work>
    </rdf:RDF>
  </metadata>
  <g
     inkscape:label="Layer 1"
     inkscape:groupmode="layer"
     id="layer1">
    <rect
       style="fill:#000000;fill-opacity:1;stroke:#ffffff;stroke-width:0.1349525;stroke-linecap:round;stroke-linejoin:round;stroke-miterlimit:4;stroke-opacity:0.50196078;stroke-dasharray:none"
       id="rect2883"
       width="275.18506"
       height="197.03535"
       x="-721.37396"
       y="723.10144" />
    <rect
       style="fill:#4a6187;fill-opacity:1;stroke:#ffffff;stroke-width:0.15553728;stroke-linecap:round;stroke-linejoin:round;stroke-miterlimit:4;stroke-opacity:0.50196078;stroke-dasharray:none"
       id="rect3843"
       width="101.34007"
       height="101.34007"
       x="-725.89545"
       y="396.51932" />
    <text
       xml:space="preserve"
       style="font-size:40px;font-style:normal;font-weight:normal;fill:#000000;fill-opacity:1;stroke:none;font-family:Forte;-inkscape-font-specification:Forte"
       x="-327.5"
       y="558.86218"
       id="text3601"><tspan
         sodipodi:role="line"
         id="tspan3603"
         x="-327.5"
         y="558.86218" /></text>
    <path
       style="fill:#162d50;fill-opacity:1;stroke:#ffffff;stroke-width:0.68501526;stroke-linecap:round;stroke-linejoin:round;stroke-miterlimit:4;stroke-opacity:1;stroke-dasharray:none"
       d="m -588.70905,439.64423 0,31.31498 20.97859,0 c -0.41253,-0.2744 -0.80315,-0.55137 -1.19266,-0.85627 -0.80187,-0.73412 -1.34896,-1.20134 -2.04893,-2.04893 -0.57111,-0.69157 -1.32302,-1.79579 -1.71254,-2.59938 -0.58413,-1.2051 -0.64998,-1.76544 -0.97859,-3.05811 -0.0888,-0.55688 -0.22092,-1.09009 -0.27523,-1.65137 -0.0553,-0.57168 -0.0631,-1.16879 -0.0612,-1.74312 5.8e-4,-0.27584 0.0227,-0.54981 0.0306,-0.82569 -0.11619,0.0314 -0.18714,0.0523 -0.33639,0.0917 -0.74541,0.19685 -1.35963,0.45902 -2.04893,0.58104 -0.98335,0.17406 -1.66285,0.46273 -2.53823,-0.21407 -2.16628,-1.67484 0.67356,-2.20087 1.25382,-1.2844 0.57616,0.91001 1.78489,0.47159 2.81346,0.0917 0.37687,-0.13481 0.64931,-0.23687 0.91743,-0.33639 0.0615,-0.58812 0.16994,-1.19177 0.27523,-1.7737 0.35031,-1.93618 0.42063,-1.95148 0.97859,-3.85321 0.22895,-0.65251 0.41461,-1.3157 0.67279,-1.95719 0.53366,-1.32601 1.07658,-2.3235 1.80428,-3.5474 0.32603,-0.54833 0.64368,-1.09794 1.00917,-1.62079 0.74586,-1.06697 1.34366,-1.64127 2.20184,-2.59939 0.62102,-0.51669 1.34319,-1.19898 2.04893,-1.6208 0.42081,-0.25151 0.80631,-0.40373 1.19266,-0.48929 l -24.98471,0 z m 28.10397,0 c 0.12688,0.0342 0.26473,0.10293 0.36698,0.18348 0.12558,0.0989 0.15275,0.23614 0.24464,0.36698 0.0447,0.17279 0.13559,0.34223 0.15291,0.51987 0.0395,0.40499 -0.0608,1.02774 -0.15291,1.40673 -0.24014,0.9883 -0.65734,1.93634 -1.03975,2.87462 -0.17346,0.38603 -0.33674,0.78055 -0.51988,1.16208 -1.11549,2.32371 -2.5287,4.48845 -4.15902,6.48318 -0.77708,0.84717 -1.37093,1.56028 -2.23242,2.32416 -0.37758,0.3348 -0.79038,0.61275 -1.19266,0.91743 -0.38177,0.28914 -0.75668,0.60129 -1.16208,0.85627 -0.68624,0.43164 -1.02753,0.57804 -1.59021,0.79511 -0.0658,1.06572 -0.0619,2.14755 0.0612,3.21101 0.064,0.55304 0.18109,1.07207 0.27523,1.62079 0.34814,1.25642 0.4533,1.85879 1.03976,3.02752 0.41769,0.8324 1.10441,1.83187 1.71253,2.53823 0.7439,0.86403 1.25822,1.24876 2.1101,1.98777 0.50245,0.37663 1.0205,0.71807 1.55963,1.03975 l 7.737,0 0,-31.31498 -3.21101,0 z m -1.95718,0.82569 c -0.89668,0.43818 -1.37299,0.84993 -2.20184,1.46789 -0.40006,0.39453 -0.81333,0.77815 -1.19266,1.19266 -0.87203,0.95285 -1.54583,1.86885 -2.23241,2.96636 -0.66285,1.0596 -1.35056,2.33551 -1.83487,3.48624 -0.26714,0.63473 -0.46521,1.31101 -0.70336,1.95718 -0.18218,0.64467 -0.39395,1.27524 -0.55046,1.92661 -0.19815,0.82462 -0.34453,1.66555 -0.45872,2.50764 1.01154,-0.66467 1.92745,-1.47313 2.78288,-2.32416 0.38215,-0.38016 0.76382,-0.76788 1.1315,-1.16208 1.64141,-1.94045 2.98105,-4.12551 4.00611,-6.4526 0.16648,-0.37791 0.33434,-0.74871 0.4893,-1.13149 0.33575,-0.94248 0.39713,-1.08426 0.6422,-2.01835 0.073,-0.27837 0.13515,-0.54198 0.18349,-0.82569 0.0559,-0.32791 0.13583,-0.96646 0.0612,-1.31498 -0.0198,-0.0926 -0.0786,-0.19039 -0.12232,-0.27523 z m -22.04893,2.78287 c 0.18123,2e-5 4.42524,0.0149 4.74006,0.0306 1.11559,0.0552 2.21871,0.11728 3.33333,0.18349 0.1542,0.0114 0.8707,0.11482 0.97859,0.21406 0.0863,0.0993 0.12232,0.20694 0.12233,0.3364 -10e-6,0.1381 -0.007,0.28358 -0.0612,0.42813 -0.0539,0.14458 -0.1364,0.23677 -0.21407,0.30581 -0.10788,0.12084 -1.06851,0.18848 -1.55963,0.30581 -0.28302,0.0676 -0.64816,0.11008 -0.79511,0.39756 -0.14958,0.29261 -2.14218,6.32651 -2.263,6.72782 -0.0389,0.0993 -0.12851,0.42624 -0.27523,0.9786 l -0.12232,0.39755 -0.0612,0.27523 -0.0612,0.27523 c -0.0216,0.0949 -0.0439,0.17777 -0.0612,0.24465 -0.0173,0.0669 -0.0198,0.13386 -0.0306,0.18348 -0.0109,0.0496 -0.0176,0.10113 -0.0306,0.15291 -0.3107,1.32912 -0.57466,2.14479 -0.76453,2.47706 -0.0863,0.14673 -0.22494,0.28105 -0.39755,0.39756 -0.54373,0.35386 -0.94312,0.51987 -1.25382,0.51987 -0.21577,0 -0.40159,-0.0566 -0.55046,-0.21406 -0.14888,-0.15752 -0.24465,-0.3786 -0.24465,-0.61162 0,-0.42291 0.20993,-1.18491 0.58104,-2.32416 0.11221,-0.36248 0.21303,-0.68046 0.30581,-0.94801 0.0928,-0.26755 0.20477,-0.58084 0.33639,-0.91744 0.13162,-0.33658 0.262,-0.69058 0.42814,-1.07033 0.16614,-0.37976 2.40801,-6.60306 2.47706,-6.75841 -1.15549,-0.12306 -5.10044,0.12233 -5.62691,0.12232 -0.53078,10e-6 -0.79511,-0.17933 -0.79511,-0.55046 0,-0.23733 0.17465,-0.55062 0.51988,-0.91743 0.23302,-0.23734 0.44371,-0.39651 0.6422,-0.48929 0.19852,-0.0928 0.42286,-0.15289 0.70337,-0.15291 z"
       id="rect3895"
       inkscape:export-xdpi="90"
       inkscape:export-ydpi="90" />
    <path
       id="path3960-3-5"
       style="font-size:40px;font-style:normal;font-variant:normal;font-weight:normal;font-stretch:normal;fill:#162d50;fill-opacity:1;stroke:#162d50;stroke-width:0.62306875;stroke-miterlimit:4;stroke-opacity:1;stroke-dasharray:none;font-family:Forte;-inkscape-font-specification:Forte"
       d="m -520.78953,488.91943 -0.0588,0.25316 c -0.0196,0.0864 -0.0373,0.15996 -0.053,0.22079 -0.0157,0.0608 -0.0285,0.11383 -0.0382,0.15897 -0.01,0.0451 -0.0206,0.0913 -0.0324,0.13835 -0.28261,1.20893 -0.51026,1.96451 -0.68296,2.26674 -0.0785,0.13345 -0.19626,0.25316 -0.35326,0.35914 -0.49457,0.32186 -0.88315,0.48279 -1.16575,0.48279 -0.19626,0 -0.36209,-0.0717 -0.49751,-0.2149 -0.13541,-0.14326 -0.20312,-0.32087 -0.20312,-0.53283 0,-0.38466 0.16878,-1.0951 0.50633,-2.13132 0.10206,-0.32971 0.19528,-0.61624 0.27967,-0.85959 0.0844,-0.24336 0.18644,-0.51811 0.30615,-0.82427 0.11972,-0.30615 0.25513,-0.63193 0.40625,-0.97734 0.15112,-0.34541 2.17333,-6.0148 2.23613,-6.1561 -1.051,-0.11193 -4.63395,0.11187 -5.11281,0.11186 -0.48279,1e-5 -0.72418,-0.16877 -0.72418,-0.50634 0,-0.21587 0.157,-0.49063 0.47101,-0.82427 0.21196,-0.21587 0.40821,-0.366 0.58876,-0.45039 0.18056,-0.0844 0.39839,-0.12658 0.65353,-0.12659 0.16485,10e-6 4.00809,5e-4 4.29444,0.0147 1.01471,0.0502 2.03179,0.11937 3.0456,0.1796 0.14026,0.0103 0.78801,0.0923 0.88615,0.18251 0.0785,0.0903 0.11774,0.19431 0.11775,0.31206 -10e-6,0.1256 -0.0245,0.25415 -0.0736,0.38563 -0.0491,0.1315 -0.10893,0.22864 -0.17957,0.29144 -0.0981,0.10991 -0.98633,0.17 -1.43305,0.27672 -0.25742,0.0615 -0.56932,0.0859 -0.70298,0.34737 -0.13605,0.26616 -1.97021,5.77341 -2.08011,6.13843 -0.0353,0.0903 -0.11971,0.38663 -0.25316,0.88903 l -0.0883,0.35326 -0.0589,0.24139 0,-10e-6 z"
       sodipodi:nodetypes="ccsscscssscssscsscsssccsscssccccc" />
    <path
       style="font-size:40px;font-style:normal;font-variant:normal;font-weight:normal;font-stretch:normal;fill:#162d50;fill-opacity:1;stroke:#162d50;stroke-width:0.62306875;stroke-miterlimit:4;stroke-opacity:1;stroke-dasharray:none;font-family:Forte;-inkscape-font-specification:Forte"
       d="m -504.17993,475.9274 c -0.77535,-0.006 -1.41054,0.0794 -2.17607,0.53696 -0.64191,0.38367 -1.30975,0.99017 -1.87462,1.46013 -0.78057,0.87148 -1.30925,1.41283 -1.98766,2.38331 -0.33244,0.47558 -0.63605,0.97079 -0.9326,1.46955 -0.66188,1.11322 -1.14428,2.00619 -1.62969,3.21229 -0.23482,0.58348 -0.41349,1.18692 -0.62173,1.78042 -0.50751,1.72975 -0.56687,1.76206 -0.8855,3.52315 -0.0958,0.52931 -0.18899,1.0665 -0.24492,1.60144 -0.24388,0.0905 -0.50503,0.17881 -0.84782,0.30144 -0.93556,0.3455 -2.0194,0.76177 -2.54346,-0.066 -0.52778,-0.83359 -3.11025,-0.36472 -1.13987,1.15866 0.79622,0.61559 1.40411,0.34673 2.29852,0.1884 0.62697,-0.11098 1.18721,-0.32963 1.8652,-0.50869 0.13577,-0.0359 0.19577,-0.0562 0.30145,-0.0848 -0.008,0.25094 -0.009,0.50273 -0.009,0.75362 -10e-4,0.5224 0.006,1.05319 0.0565,1.57317 0.0494,0.51053 0.15472,1.01013 0.23551,1.51665 0.29889,1.17579 0.36361,1.68284 0.89491,2.77896 0.3543,0.73092 1.02546,1.73544 1.54492,2.36447 0.63667,0.77094 1.13583,1.17862 1.8652,1.84636 0.92276,0.72233 1.91866,1.35941 2.97678,1.8652 0.84489,0.40385 1.72281,0.71641 2.61882,0.9797 1.73962,0.51119 4.75565,1.24508 4.82314,0.24492 0.0353,-0.52231 -1.72755,-0.36682 -2.6094,-0.52753 -0.94666,-0.17252 -1.84017,-0.54214 -2.72244,-0.9326 -1.08301,-0.4793 -2.10509,-1.08936 -3.05214,-1.79925 -0.77484,-0.67218 -1.23568,-1.02279 -1.9123,-1.80869 -0.55314,-0.64248 -1.18383,-1.55081 -1.56375,-2.30794 -0.53342,-1.06305 -0.61595,-1.58906 -0.9326,-2.73186 -0.0856,-0.4991 -0.20555,-0.99478 -0.26376,-1.49781 -0.11195,-0.96728 -0.11635,-1.94149 -0.0566,-2.91085 0.51181,-0.19743 0.82653,-0.33274 1.45072,-0.72535 0.36873,-0.23192 0.71724,-0.50003 1.06448,-0.76303 0.36591,-0.27713 0.73047,-0.55271 1.0739,-0.85724 0.78358,-0.6948 1.33738,-1.33015 2.04418,-2.10071 1.48289,-1.81434 2.7629,-3.79289 3.77751,-5.90646 0.16658,-0.34703 0.32265,-0.70394 0.48043,-1.05506 0.34783,-0.85342 0.70475,-1.71047 0.92317,-2.60939 0.0838,-0.34472 0.17726,-0.90337 0.14131,-1.27174 -0.0158,-0.16157 -0.0818,-0.31384 -0.12246,-0.47101 -0.0836,-0.119 -0.1307,-0.26797 -0.24493,-0.35796 -0.12853,-0.10126 -0.28857,-0.1853 -0.45217,-0.18841 -0.62831,-0.0119 -1.14564,-0.0528 -1.61085,-0.0565 l 10e-6,3e-5 z m -0.0376,0.83841 c 0.0398,0.0772 0.0856,0.16074 0.10363,0.24492 0.0679,0.31702 0.0131,0.8981 -0.0377,1.19636 -0.0439,0.25805 -0.11255,0.50984 -0.17898,0.76304 -0.22291,0.84962 -0.2881,0.97028 -0.59348,1.82752 -0.14095,0.34817 -0.27248,0.7019 -0.4239,1.04564 -0.93238,2.11665 -2.17148,4.08496 -3.66446,5.84995 -0.33442,0.35854 -0.66037,0.72811 -1.00796,1.0739 -0.77808,0.77406 -1.62339,1.49614 -2.54346,2.1007 0.10386,-0.76594 0.24369,-1.52964 0.42392,-2.27968 0.14235,-0.59247 0.33356,-1.17521 0.49926,-1.76158 0.21661,-0.58774 0.39759,-1.18425 0.64058,-1.76158 0.44051,-1.04667 1.07389,-2.22025 1.67679,-3.18403 0.62449,-0.99826 1.22275,-1.82748 2.01593,-2.69418 0.34503,-0.37701 0.72886,-0.72446 1.09274,-1.08332 0.7539,-0.56207 1.18149,-0.9391 1.99708,-1.33766 z"
       id="path3966-1-7"
       sodipodi:nodetypes="cscssscsccsssscsscsscssssscsscscssscscsscsscccssscscscscssscc" />
    <path
       style="fill:#162d50;fill-opacity:1;stroke:#ffffff;stroke-width:0.34250703;stroke-linecap:round;stroke-linejoin:round;stroke-miterlimit:4;stroke-opacity:1;stroke-dasharray:none"
       d="m -547.97268,460.20089 0,15.65746 10.48927,0 c -0.20626,-0.1372 -0.40157,-0.27568 -0.59633,-0.42813 -0.40093,-0.36706 -0.67448,-0.60067 -1.02446,-1.02446 -0.28555,-0.34579 -0.66151,-0.8979 -0.85627,-1.29969 -0.29206,-0.60255 -0.32499,-0.88272 -0.48929,-1.52905 -0.0444,-0.27844 -0.11046,-0.54505 -0.13762,-0.82569 -0.0276,-0.28584 -0.0316,-0.58439 -0.0306,-0.87156 2.9e-4,-0.13792 0.0113,-0.2749 0.0153,-0.41284 -0.0581,0.0157 -0.0936,0.0262 -0.16819,0.0458 -0.37271,0.0984 -0.67982,0.22951 -1.02446,0.29052 -0.49168,0.087 -0.83143,0.23136 -1.26912,-0.10704 -1.08314,-0.83741 0.33678,-1.10043 0.62691,-0.64219 0.28808,0.455 0.89244,0.23579 1.40673,0.0459 0.18843,-0.0674 0.32465,-0.11844 0.45871,-0.1682 0.0308,-0.29406 0.085,-0.59588 0.13762,-0.88685 0.17515,-0.96809 0.21031,-0.97574 0.48929,-1.9266 0.11448,-0.32625 0.20731,-0.65785 0.3364,-0.97859 0.26683,-0.66301 0.53829,-1.16175 0.90213,-1.7737 0.16302,-0.27416 0.32184,-0.54897 0.50459,-0.81039 0.37293,-0.53349 0.67183,-0.82064 1.10092,-1.2997 0.31051,-0.25834 0.67159,-0.59948 1.02446,-0.81039 0.2104,-0.12576 0.40315,-0.20187 0.59633,-0.24465 l -12.49233,0 z m 14.05196,0 c 0.0634,0.0171 0.13236,0.0515 0.18349,0.0917 0.0628,0.0495 0.0764,0.11807 0.12232,0.18349 0.0224,0.0864 0.0678,0.17112 0.0765,0.25994 0.0198,0.20249 -0.0304,0.51386 -0.0765,0.70336 -0.12007,0.49415 -0.32867,0.96817 -0.51988,1.43731 -0.0867,0.19301 -0.16837,0.39027 -0.25994,0.58104 -0.55774,1.16185 -1.26435,2.24422 -2.0795,3.24158 -0.38854,0.42358 -0.68547,0.78014 -1.11621,1.16208 -0.18879,0.1674 -0.39519,0.30637 -0.59633,0.45871 -0.19089,0.14457 -0.37834,0.30065 -0.58104,0.42814 -0.34312,0.21582 -0.51376,0.28902 -0.7951,0.39755 -0.0329,0.53286 -0.0309,1.07377 0.0306,1.6055 0.032,0.27652 0.0905,0.53604 0.13761,0.8104 0.17407,0.62821 0.22665,0.92939 0.51988,1.51375 0.20884,0.4162 0.5522,0.91594 0.85626,1.26912 0.37195,0.43201 0.62911,0.62438 1.05505,0.99388 0.25123,0.18831 0.51025,0.35903 0.77982,0.51987 l 3.86849,0 0,-15.65746 -1.6055,0 z m -0.97859,0.41285 c -0.44834,0.21909 -0.6865,0.42496 -1.10092,0.73394 -0.20003,0.19726 -0.40666,0.38907 -0.59633,0.59633 -0.43601,0.47642 -0.77291,0.93442 -1.1162,1.48318 -0.33143,0.52979 -0.67528,1.16775 -0.91744,1.74311 -0.13357,0.31737 -0.2326,0.65551 -0.35167,0.97859 -0.0911,0.32234 -0.19698,0.63762 -0.27523,0.9633 -0.0991,0.41231 -0.17227,0.83278 -0.22936,1.25382 0.50577,-0.33233 0.96372,-0.73656 1.39143,-1.16208 0.19108,-0.19008 0.38191,-0.38394 0.56575,-0.58103 0.82071,-0.97023 1.49053,-2.06276 2.00305,-3.2263 0.0832,-0.18895 0.16717,-0.37435 0.24465,-0.56574 0.16788,-0.47124 0.19857,-0.54213 0.3211,-1.00918 0.0365,-0.13918 0.0676,-0.27099 0.0917,-0.41284 0.028,-0.16396 0.0679,-0.48323 0.0306,-0.65749 -0.01,-0.0463 -0.0393,-0.0952 -0.0612,-0.13761 z m -11.02445,1.39143 c 0.0906,10e-6 2.21262,0.007 2.37003,0.0153 0.55779,0.0276 1.10935,0.0586 1.66666,0.0917 0.0771,0.006 0.43535,0.0574 0.48929,0.10703 0.0432,0.0497 0.0612,0.10347 0.0612,0.1682 -10e-6,0.069 -0.004,0.14179 -0.0306,0.21407 -0.0269,0.0723 -0.0682,0.11838 -0.10704,0.1529 -0.0539,0.0604 -0.53425,0.0942 -0.77981,0.15291 -0.14151,0.0338 -0.32408,0.055 -0.39755,0.19878 -0.0748,0.1463 -1.07109,3.16325 -1.1315,3.3639 -0.0195,0.0497 -0.0643,0.21312 -0.13762,0.4893 l -0.0612,0.19877 -0.0306,0.13762 -0.0306,0.13761 c -0.0108,0.0475 -0.0219,0.0889 -0.0306,0.12233 -0.009,0.0335 -0.01,0.0669 -0.0153,0.0917 -0.005,0.0248 -0.009,0.0506 -0.0153,0.0765 -0.15535,0.66456 -0.28733,1.0724 -0.38226,1.23853 -0.0431,0.0734 -0.11247,0.14053 -0.19877,0.19878 -0.27187,0.17693 -0.47156,0.25994 -0.62691,0.25994 -0.10789,0 -0.2008,-0.0283 -0.27523,-0.10703 -0.0744,-0.0788 -0.12233,-0.1893 -0.12233,-0.30581 0,-0.21146 0.10497,-0.59246 0.29052,-1.16208 0.0561,-0.18124 0.10652,-0.34023 0.15291,-0.47401 0.0464,-0.13377 0.10238,-0.29042 0.16819,-0.45872 0.0658,-0.16829 0.131,-0.34528 0.21407,-0.53516 0.0831,-0.18988 1.204,-3.30152 1.23853,-3.3792 -0.57775,-0.0615 -2.55022,0.0612 -2.81345,0.0612 -0.26539,1e-5 -0.39756,-0.0897 -0.39756,-0.27523 0,-0.11866 0.0873,-0.27531 0.25994,-0.45871 0.11651,-0.11867 0.22186,-0.19826 0.3211,-0.24465 0.0993,-0.0464 0.21143,-0.0764 0.35169,-0.0764 z"
       id="rect3895-6" />
    <g
       id="g3701"
       transform="translate(-73.81585,-1.916738)">
      <g
         style="fill:#162d50;fill-opacity:1;stroke:#183155;stroke-width:0.99833673;stroke-miterlimit:4;stroke-opacity:0.50196078;stroke-dasharray:none"
         transform="matrix(0.3045113,0,0,0.3045113,-541.33448,291.67026)"
         id="g3635">
        <path
           id="path3960"
           style="font-size:40px;font-style:normal;font-variant:normal;font-weight:normal;font-stretch:normal;fill:#162d50;fill-opacity:1;stroke:#183155;stroke-width:0.99833673;stroke-linecap:round;stroke-linejoin:round;stroke-miterlimit:4;stroke-opacity:0.50196078;stroke-dasharray:none;font-family:Forte;-inkscape-font-specification:Forte"
           d="m -316.9122,485.22394 -0.19531,0.83984 c -0.0651,0.28647 -0.12371,0.53061 -0.17578,0.73242 -0.0521,0.20184 -0.0944,0.37762 -0.12696,0.52735 -0.0326,0.14975 -0.0684,0.30274 -0.10742,0.45898 -0.93751,4.01042 -1.69272,6.51693 -2.26562,7.51953 -0.26043,0.44271 -0.65106,0.83985 -1.17188,1.19141 -1.64063,1.06771 -2.92969,1.60156 -3.86719,1.60156 -0.65104,0 -1.20117,-0.23763 -1.65039,-0.71289 -0.44922,-0.47526 -0.67383,-1.06445 -0.67383,-1.76758 0,-1.27604 0.5599,-3.6328 1.67969,-7.07031 0.33854,-1.09374 0.64778,-2.04426 0.92774,-2.85156 0.27994,-0.80728 0.61848,-1.71874 1.01562,-2.73438 0.39713,-1.01561 0.84635,-2.09633 1.34766,-3.24218 0.50129,-1.14582 7.20966,-19.95311 7.418,-20.42188 -3.48653,-0.3713 -15.3724,0.37111 -16.96094,0.37109 -1.60156,2e-5 -2.40234,-0.55987 -2.40234,-1.67968 0,-0.71613 0.52083,-1.62758 1.5625,-2.73438 0.70312,-0.71612 1.35416,-1.21417 1.95312,-1.49414 0.59896,-0.27992 1.32161,-0.41989 2.16797,-0.41992 0.54687,3e-5 13.29621,0.002 14.2461,0.0488 3.36615,0.16652 6.74016,0.396 10.10332,0.59577 0.46527,0.0341 2.61411,0.30602 2.93965,0.60547 0.26039,0.2995 0.3906,0.64456 0.39062,1.03516 -2e-5,0.41669 -0.0814,0.84312 -0.24414,1.27929 -0.16278,0.43622 -0.36135,0.75849 -0.5957,0.9668 -0.32554,0.3646 -3.27201,0.56395 -4.75391,0.91797 -0.85396,0.20401 -1.88864,0.28495 -2.33203,1.15235 -0.45133,0.88294 -6.53586,19.15236 -6.90043,20.36328 -0.1172,0.2995 -0.39714,1.28257 -0.83984,2.94922 l -0.29297,1.17188 -0.19531,0.80075 0,-2e-5 z"
           sodipodi:nodetypes="ccsscscssscssscsscsssccsscssccccc" />
        <path
           id="path3962"
           style="font-size:40px;font-style:normal;font-variant:normal;font-weight:normal;font-stretch:normal;fill:#162d50;fill-opacity:1;stroke:#183155;stroke-width:0.99833673;stroke-linecap:round;stroke-linejoin:round;stroke-miterlimit:4;stroke-opacity:0.50196078;stroke-dasharray:none;font-family:Forte;-inkscape-font-specification:Forte"
           d="m -297.71298,491.8255 -0.33203,0.27344 c -0.0651,0.0391 -0.50132,0.3711 -1.3086,0.99609 -1.56251,1.22396 -2.85157,2.19076 -3.86718,2.90039 -1.01564,0.70964 -1.86199,1.23047 -2.53907,1.5625 -0.67708,0.33203 -1.22396,0.49805 -1.64062,0.49805 -0.70313,0 -1.26628,-0.28971 -1.68946,-0.86914 -0.42317,-0.57943 -0.63476,-1.33138 -0.63476,-2.25586 0,-1.5625 0.23437,-3.38216 0.70312,-5.45899 0.46875,-2.07681 1.10026,-4.12433 1.89454,-6.14257 0.87239,-2.23957 1.94009,-3.60676 3.20312,-4.10157 0.4427,-0.19529 0.96353,-0.29295 1.5625,-0.29296 0.8203,10e-6 1.48437,0.25392 1.99219,0.76171 0.5078,0.50783 0.76171,1.17841 0.76172,2.01172 -1e-5,0.57294 -0.0977,1.1784 -0.29297,1.81641 -0.19533,0.63803 -0.50783,1.39975 -0.9375,2.28516 l -0.23438,0.5664 c -1.1198,2.3698 -1.67969,3.8086 -1.67968,4.31641 -10e-6,0.29948 0.10415,0.44922 0.3125,0.44922 0.1953,0 0.44921,-0.13672 0.76171,-0.41016 0.31249,-0.27343 0.79426,-0.77473 1.44532,-1.50391 0.40363,-0.49478 0.97655,-1.11327 1.71875,-1.85546 l 0.72265,-0.72266 0.625,-0.66406 c 1.31509,-1.30207 2.38931,-2.24283 3.22266,-2.82227 0.83331,-0.57941 1.52342,-0.86912 2.07031,-0.86914 1.04165,2e-5 1.56248,0.90496 1.5625,2.71484 -2e-5,0.37762 -0.0456,1.04819 -0.13672,2.01172 -0.15627,1.87501 -0.23439,3.46355 -0.23437,4.76563 0.013,0.26042 0.0228,0.49805 0.0293,0.71289 0.006,0.21485 0.01,0.49154 0.01,0.83008 0.0911,0.8724 0.15623,1.54297 0.19531,2.01172 0.0911,0.74218 0.1367,1.11328 0.13672,1.11328 -2e-5,0.39062 -0.35158,0.73567 -1.05469,1.03515 -0.70314,0.29948 -1.51694,0.44922 -2.4414,0.44922 -0.84637,0 -1.57228,-0.16601 -2.17774,-0.49805 -0.60548,-0.33203 -1.06446,-0.82356 -1.37695,-1.4746 -0.31251,-0.65104 -0.46876,-1.44531 -0.46875,-2.38282 -1e-5,-0.11718 0.013,-0.32226 0.0391,-0.61523 0.026,-0.29296 0.0521,-0.67382 0.0781,-1.14258 z" />
        <path
           id="path3964"
           style="font-size:40px;font-style:normal;font-variant:normal;font-weight:normal;font-stretch:normal;fill:#162d50;fill-opacity:1;stroke:#183155;stroke-width:0.99833673;stroke-linecap:round;stroke-linejoin:round;stroke-miterlimit:4;stroke-opacity:0.50196078;stroke-dasharray:none;font-family:Forte;-inkscape-font-specification:Forte"
           d="m -280.15439,487.62628 1.17188,-1.36719 c 1.18488,-1.31509 2.12563,-2.2949 2.82226,-2.93945 0.6966,-0.64451 1.3216,-1.11001 1.875,-1.39648 0.55337,-0.28645 1.11652,-0.42967 1.68946,-0.42969 0.92446,2e-5 1.5755,0.24741 1.95312,0.74219 0.37759,0.4948 0.56639,1.35418 0.56641,2.57812 -2e-5,0.50783 -0.0521,1.25652 -0.15625,2.2461 -0.15627,1.31511 -0.2344,2.55209 -0.23438,3.71093 -2e-5,1.30209 0.0651,2.35678 0.19531,3.16407 0.0911,0.49479 0.22785,0.98958 0.41016,1.48437 0.13019,0.46875 0.19529,0.78776 0.19531,0.95703 -2e-5,0.20834 -0.0781,0.3711 -0.23437,0.48828 -0.40367,0.35157 -0.93752,0.65756 -1.60156,0.91797 -0.66408,0.26042 -1.22398,0.39063 -1.67969,0.39063 -0.74221,0 -1.41603,-0.25391 -2.02149,-0.76172 -0.60548,-0.50781 -1.07423,-1.21094 -1.40625,-2.10938 -0.33204,-0.89843 -0.49806,-1.91405 -0.49804,-3.04687 -2e-5,-0.7552 0.0781,-1.64713 0.23437,-2.67578 l -0.0781,-0.0781 c -0.55991,0.62501 -1.01238,1.1198 -1.35743,1.48438 -0.34506,0.36459 -0.66732,0.70964 -0.96679,1.03515 -1.45834,1.66667 -2.69532,3.17058 -3.71094,4.51172 -0.39063,0.52084 -0.7487,0.97656 -1.07422,1.36719 -0.48177,0.48177 -1.02865,0.72265 -1.64062,0.72266 -0.83334,-10e-6 -1.51042,-0.3125 -2.03125,-0.9375 -0.52084,-0.625 -0.78125,-1.43229 -0.78125,-2.42188 0,-0.61198 0.0716,-1.36067 0.21484,-2.24609 0.14323,-0.88541 0.33529,-1.83268 0.57617,-2.8418 0.24089,-1.00911 0.52734,-2.04752 0.85938,-3.11523 0.33203,-1.0677 0.69335,-2.08332 1.08398,-3.04688 0.59896,-1.60155 1.32812,-2.85155 2.1875,-3.75 0.58593,-0.58592 1.29557,-0.87889 2.12891,-0.87891 1.35416,2e-5 2.03124,0.87893 2.03125,2.63672 -10e-6,1.28908 -0.26694,3.13153 -0.80078,5.52735 z" />
        <path
           style="font-size:40px;font-style:normal;font-variant:normal;font-weight:normal;font-stretch:normal;fill:#162d50;fill-opacity:1;stroke:#183155;stroke-width:0.99833673;stroke-linecap:round;stroke-linejoin:round;stroke-miterlimit:4;stroke-opacity:0.50196078;stroke-dasharray:none;font-family:Forte;-inkscape-font-specification:Forte"
           d="m -201.8125,442.125 c -2.57212,-0.0207 -4.67924,0.26341 -7.21875,1.78125 -2.12944,1.27274 -4.34493,3.28474 -6.21875,4.84375 -2.58946,2.89098 -4.34324,4.68683 -6.59375,7.90625 -1.10285,1.57766 -2.10999,3.22046 -3.09375,4.875 -2.19572,3.69292 -3.796,6.65521 -5.40625,10.65625 -0.779,1.93561 -1.37169,3.93743 -2.0625,5.90625 -1.6836,5.73819 -1.88051,5.84537 -2.9375,11.6875 -0.31768,1.75588 -0.62693,3.53793 -0.8125,5.3125 -0.809,0.30029 -1.67534,0.59321 -2.8125,1 -5.19189,1.7138 -6.6622,1.42238 -7.875,0.34375 -0.18192,-0.16179 -0.38187,-0.369 -0.5625,-0.5625 -0.21028,-0.55918 -0.37167,-1.14825 -0.46875,-1.71875 -0.0391,-0.23437 -0.086,-0.54687 -0.125,-0.9375 -0.0391,-0.39062 -0.0495,-0.73176 -0.0625,-1.03125 -0.0135,-0.29947 -0.0313,-0.72656 -0.0312,-1.3125 -2e-5,-1.11978 0.0469,-2.33593 0.125,-3.625 0.0651,-0.58593 0.0937,-0.83335 0.0937,-0.78125 -2e-5,-0.54687 -0.099,-0.91274 -0.28125,-1.0625 -0.18231,-0.1497 -0.6094,-0.21874 -1.3125,-0.21875 0.53383,-0.85937 0.81248,-1.66926 0.8125,-2.4375 -2e-5,-1.04165 -0.5508,-1.91014 -1.625,-2.59375 -1.07424,-0.68358 -2.45835,-1.03123 -4.125,-1.03125 -1.97918,2e-5 -4.02085,0.70575 -6.15625,2.125 -2.07032,1.38023 -3.78907,3.08334 -5.15625,5.0625 -0.82032,1.21094 -1.46875,2.42449 -1.9375,3.6875 -0.46875,1.26303 -0.6875,2.35678 -0.6875,3.28125 0,1.4974 0.45573,2.74219 1.40625,3.71875 0.95052,0.97656 2.16666,1.46874 3.625,1.46875 0.71614,-10e-6 1.49088,-0.23177 2.34375,-0.6875 0.85286,-0.45573 1.77213,-1.1263 2.78125,-2.03125 1.00911,-0.90495 2.1328,-2.08073 3.34375,-3.5 l 0.0937,0.0937 c -0.0212,0.2145 -0.0625,0.49202 -0.0625,0.84375 0,0.17035 0.0261,0.30703 0.0312,0.46875 0.001,0.0322 -0.001,0.0619 0,0.0937 -0.0404,0.49726 0.025,1.04102 0.15625,1.625 0.0642,0.28583 0.14315,0.58599 0.25,0.875 0.52537,1.42111 1.56297,2.79781 3.1875,3.46875 3.09913,1.27996 4.65789,1.15024 7.625,0.625 2.07985,-0.36817 3.93837,-1.0935 6.1875,-1.6875 0.45036,-0.11894 0.64942,-0.18639 1,-0.28125 -0.0251,0.83244 -0.029,1.66772 -0.0312,2.5 -0.005,1.73299 0.0206,3.49382 0.1875,5.21875 0.16388,1.69361 0.51325,3.35097 0.78125,5.03125 0.99153,3.9005 1.20622,5.58256 2.96875,9.21875 1.17531,2.42472 3.40175,5.75705 5.125,7.84375 2.11205,2.55749 3.76793,3.90988 6.1875,6.125 3.0611,2.39623 6.36485,4.50965 9.875,6.1875 2.8028,1.33973 5.71513,2.37657 8.6875,3.25 5.7709,1.69579 15.77614,4.13034 16,0.8125 0.11691,-1.73268 -5.73085,-1.21688 -8.65625,-1.75 -3.1404,-0.5723 -6.10447,-1.79846 -9.03125,-3.09375 -3.59273,-1.59001 -6.98331,-3.61379 -10.125,-5.96875 -2.57042,-2.22983 -4.09917,-3.3929 -6.34375,-6 -1.83495,-2.13132 -3.92718,-5.14458 -5.1875,-7.65625 -1.76954,-3.52649 -2.04332,-5.27144 -3.09375,-9.0625 -0.284,-1.65569 -0.68188,-3.30002 -0.875,-4.96875 -0.37135,-3.20879 -0.38594,-6.44059 -0.1875,-9.65625 1.6978,-0.65495 2.74185,-1.10385 4.8125,-2.40625 1.22319,-0.76937 2.37932,-1.6588 3.53125,-2.53125 1.21383,-0.91933 2.42321,-1.83352 3.5625,-2.84375 2.59939,-2.3049 4.43653,-4.41255 6.78125,-6.96875 4.91925,-6.01877 9.16545,-12.58232 12.53125,-19.59375 0.55262,-1.1512 1.07037,-2.33522 1.59375,-3.5 1.15386,-2.83109 2.33791,-5.67419 3.0625,-8.65625 0.27785,-1.14352 0.58803,-2.99676 0.46875,-4.21875 -0.0523,-0.53599 -0.27136,-1.04113 -0.40625,-1.5625 -0.27724,-0.3948 -0.43356,-0.88895 -0.8125,-1.1875 -0.42637,-0.33592 -0.95729,-0.6147 -1.5,-0.625 -2.08433,-0.0394 -3.80048,-0.1751 -5.34375,-0.1875 z m -0.125,2.78125 c 0.1319,0.25602 0.28393,0.53325 0.34375,0.8125 0.22523,1.05164 0.0436,2.9793 -0.125,3.96875 -0.14585,0.85604 -0.37338,1.6913 -0.59375,2.53125 -0.73948,2.81849 -0.95571,3.21875 -1.96875,6.0625 -0.46759,1.15498 -0.90395,2.32845 -1.40625,3.46875 -3.09302,7.02164 -7.20354,13.5512 -12.15625,19.40625 -1.10939,1.18942 -2.19067,2.41538 -3.34375,3.5625 -2.58115,2.56783 -5.38533,4.96321 -8.4375,6.96875 0.34454,-2.54089 0.80837,-5.07434 1.40625,-7.5625 0.47226,-1.96541 1.10655,-3.89858 1.65625,-5.84375 0.71856,-1.94973 1.31894,-3.92854 2.125,-5.84375 1.46134,-3.47216 3.56245,-7.36532 5.5625,-10.5625 2.07163,-3.31157 4.05627,-6.06238 6.6875,-8.9375 1.14459,-1.25069 2.41788,-2.4033 3.625,-3.59375 2.50093,-1.86459 3.91939,-3.11535 6.625,-4.4375 z m -54.34375,36.90625 c 0.23436,2e-5 0.42967,0.25653 0.625,0.71875 0.19527,0.46225 0.31249,0.97137 0.3125,1.53125 -1e-5,0.97658 -0.3646,2.01824 -1.09375,3.125 -0.20835,0.39064 -0.31251,0.62765 -0.3125,0.71875 -10e-6,0.26043 0.24217,0.37501 0.75,0.375 0.41665,10e-6 1.09373,-0.11457 2.03125,-0.375 l 0.375,-0.125 0.0937,0.0937 -0.53125,0.40625 c -1.28907,1.32814 -2.46485,2.41146 -3.5,3.21875 -1.03516,0.8073 -1.7474,1.21875 -2.125,1.21875 -0.44271,0 -0.80079,-0.24999 -1.09375,-0.71875 -0.29298,-0.46874 -0.43751,-1.0651 -0.4375,-1.78125 -1e-5,-1.08072 0.35285,-2.30728 1.0625,-3.6875 0.70962,-1.38019 1.66405,-2.71613 2.875,-4.03125 0.42967,-0.44269 0.7604,-0.68748 0.96875,-0.6875 z"
           id="path3966" />
      </g>
      <text
         sodipodi:linespacing="125%"
         id="text4120"
         y="449.07285"
         x="-602.47388"
         style="font-size:6.0726347px;font-style:normal;font-variant:normal;font-weight:normal;font-stretch:normal;text-align:start;line-height:125%;writing-mode:lr-tb;text-anchor:start;fill:#162d50;fill-opacity:1;stroke:#183155;stroke-width:0.07;stroke-linecap:round;stroke-linejoin:round;stroke-miterlimit:4;stroke-opacity:0.50196078;stroke-dasharray:none;font-family:Gill Sans Ultra Bold;-inkscape-font-specification:'Gill Sans Ultra Bold,'"
         xml:space="preserve"><tspan
           style="stroke:#183155;stroke-width:0.07;stroke-linecap:round;stroke-linejoin:round;stroke-miterlimit:4;stroke-opacity:0.50196078;stroke-dasharray:none"
           id="tspan4124"
           y="449.07285"
           x="-602.47388"
           sodipodi:role="line">wbms 0.1b</tspan></text>
    </g>
    <text
       xml:space="preserve"
       style="font-size:10px;font-style:normal;font-weight:normal;fill:#000000;fill-opacity:1;stroke:none;font-family:Forte;-inkscape-font-specification:Forte"
       x="-429.625"
       y="536.36218"
       id="text4128"><tspan
         sodipodi:role="line"
         id="tspan4130"
         x="-429.625"
         y="536.36218" /></text>
    <g
       id="g4161"
       transform="translate(-4.632251,41.582738)">
      <text
         sodipodi:linespacing="125%"
         id="text4120-1"
         y="482.99261"
         x="-513.83191"
         style="font-size:3.03626919px;font-style:normal;font-variant:normal;font-weight:normal;font-stretch:normal;text-align:start;line-height:125%;writing-mode:lr-tb;text-anchor:start;fill:#162d50;fill-opacity:1;stroke:#183155;stroke-opacity:0.1254902;font-family:Gill Sans Ultra Bold;-inkscape-font-specification:'Gill Sans Ultra Bold,'"
         xml:space="preserve"><tspan
           id="tspan4124-8"
           y="482.99261"
           x="-513.83191"
           sodipodi:role="line">Gill Sans Ultra Bold</tspan></text>
      <text
         id="text4157"
         y="479.23718"
         x="-527.5"
         style="font-size:10px;font-style:normal;font-weight:normal;fill:#162d50;fill-opacity:1;stroke:#183155;stroke-width:0.152;stroke-miterlimit:4;stroke-opacity:0.75294118;stroke-dasharray:none;font-family:Forte;-inkscape-font-specification:Forte"
         xml:space="preserve"><tspan
           y="479.23718"
           x="-527.5"
           id="tspan4159"
           sodipodi:role="line">Forte</tspan></text>
    </g>
    <g
       id="g3845"
       transform="translate(-74.934663,-1.916738)"
       style="fill:#ffffff;fill-opacity:1">
      <g
         style="fill:#ffffff;stroke:#ffffff;stroke-width:0.99833673000000001;stroke-miterlimit:4;stroke-opacity:0.50196078000000000;stroke-dasharray:none;fill-opacity:1"
         transform="matrix(0.3045113,0,0,0.3045113,-540.21569,301.54878)"
         id="g3635-7-5">
        <path
           id="path3960-4-1"
           style="font-size:40px;font-style:normal;font-variant:normal;font-weight:normal;font-stretch:normal;fill:#ffffff;fill-opacity:1;stroke:#ffffff;stroke-width:0.99833673000000001;stroke-linecap:round;stroke-linejoin:round;stroke-miterlimit:4;stroke-opacity:0.50196078000000000;stroke-dasharray:none;font-family:Forte;-inkscape-font-specification:Forte"
           d="m -316.9122,485.22394 -0.19531,0.83984 c -0.0651,0.28647 -0.12371,0.53061 -0.17578,0.73242 -0.0521,0.20184 -0.0944,0.37762 -0.12696,0.52735 -0.0326,0.14975 -0.0684,0.30274 -0.10742,0.45898 -0.93751,4.01042 -1.69272,6.51693 -2.26562,7.51953 -0.26043,0.44271 -0.65106,0.83985 -1.17188,1.19141 -1.64063,1.06771 -2.92969,1.60156 -3.86719,1.60156 -0.65104,0 -1.20117,-0.23763 -1.65039,-0.71289 -0.44922,-0.47526 -0.67383,-1.06445 -0.67383,-1.76758 0,-1.27604 0.5599,-3.6328 1.67969,-7.07031 0.33854,-1.09374 0.64778,-2.04426 0.92774,-2.85156 0.27994,-0.80728 0.61848,-1.71874 1.01562,-2.73438 0.39713,-1.01561 0.84635,-2.09633 1.34766,-3.24218 0.50129,-1.14582 7.20966,-19.95311 7.418,-20.42188 -3.48653,-0.3713 -15.3724,0.37111 -16.96094,0.37109 -1.60156,2e-5 -2.40234,-0.55987 -2.40234,-1.67968 0,-0.71613 0.52083,-1.62758 1.5625,-2.73438 0.70312,-0.71612 1.35416,-1.21417 1.95312,-1.49414 0.59896,-0.27992 1.32161,-0.41989 2.16797,-0.41992 0.54687,3e-5 13.29621,0.002 14.2461,0.0488 3.36615,0.16652 6.74016,0.396 10.10332,0.59577 0.46527,0.0341 2.61411,0.30602 2.93965,0.60547 0.26039,0.2995 0.3906,0.64456 0.39062,1.03516 -2e-5,0.41669 -0.0814,0.84312 -0.24414,1.27929 -0.16278,0.43622 -0.36135,0.75849 -0.5957,0.9668 -0.32554,0.3646 -3.27201,0.56395 -4.75391,0.91797 -0.85396,0.20401 -1.88864,0.28495 -2.33203,1.15235 -0.45133,0.88294 -6.53586,19.15236 -6.90043,20.36328 -0.1172,0.2995 -0.39714,1.28257 -0.83984,2.94922 l -0.29297,1.17188 -0.19531,0.80075 0,-2e-5 z"
           sodipodi:nodetypes="ccsscscssscssscsscsssccsscssccccc" />
        <path
           id="path3962-0-7"
           style="font-size:40px;font-style:normal;font-variant:normal;font-weight:normal;font-stretch:normal;fill:#ffffff;fill-opacity:1;stroke:#ffffff;stroke-width:0.99833673000000001;stroke-linecap:round;stroke-linejoin:round;stroke-miterlimit:4;stroke-opacity:0.50196078000000000;stroke-dasharray:none;font-family:Forte;-inkscape-font-specification:Forte"
           d="m -297.71298,491.8255 -0.33203,0.27344 c -0.0651,0.0391 -0.50132,0.3711 -1.3086,0.99609 -1.56251,1.22396 -2.85157,2.19076 -3.86718,2.90039 -1.01564,0.70964 -1.86199,1.23047 -2.53907,1.5625 -0.67708,0.33203 -1.22396,0.49805 -1.64062,0.49805 -0.70313,0 -1.26628,-0.28971 -1.68946,-0.86914 -0.42317,-0.57943 -0.63476,-1.33138 -0.63476,-2.25586 0,-1.5625 0.23437,-3.38216 0.70312,-5.45899 0.46875,-2.07681 1.10026,-4.12433 1.89454,-6.14257 0.87239,-2.23957 1.94009,-3.60676 3.20312,-4.10157 0.4427,-0.19529 0.96353,-0.29295 1.5625,-0.29296 0.8203,10e-6 1.48437,0.25392 1.99219,0.76171 0.5078,0.50783 0.76171,1.17841 0.76172,2.01172 -1e-5,0.57294 -0.0977,1.1784 -0.29297,1.81641 -0.19533,0.63803 -0.50783,1.39975 -0.9375,2.28516 l -0.23438,0.5664 c -1.1198,2.3698 -1.67969,3.8086 -1.67968,4.31641 -10e-6,0.29948 0.10415,0.44922 0.3125,0.44922 0.1953,0 0.44921,-0.13672 0.76171,-0.41016 0.31249,-0.27343 0.79426,-0.77473 1.44532,-1.50391 0.40363,-0.49478 0.97655,-1.11327 1.71875,-1.85546 l 0.72265,-0.72266 0.625,-0.66406 c 1.31509,-1.30207 2.38931,-2.24283 3.22266,-2.82227 0.83331,-0.57941 1.52342,-0.86912 2.07031,-0.86914 1.04165,2e-5 1.56248,0.90496 1.5625,2.71484 -2e-5,0.37762 -0.0456,1.04819 -0.13672,2.01172 -0.15627,1.87501 -0.23439,3.46355 -0.23437,4.76563 0.013,0.26042 0.0228,0.49805 0.0293,0.71289 0.006,0.21485 0.01,0.49154 0.01,0.83008 0.0911,0.8724 0.15623,1.54297 0.19531,2.01172 0.0911,0.74218 0.1367,1.11328 0.13672,1.11328 -2e-5,0.39062 -0.35158,0.73567 -1.05469,1.03515 -0.70314,0.29948 -1.51694,0.44922 -2.4414,0.44922 -0.84637,0 -1.57228,-0.16601 -2.17774,-0.49805 -0.60548,-0.33203 -1.06446,-0.82356 -1.37695,-1.4746 -0.31251,-0.65104 -0.46876,-1.44531 -0.46875,-2.38282 -1e-5,-0.11718 0.013,-0.32226 0.0391,-0.61523 0.026,-0.29296 0.0521,-0.67382 0.0781,-1.14258 z" />
        <path
           id="path3964-9-1"
           style="font-size:40px;font-style:normal;font-variant:normal;font-weight:normal;font-stretch:normal;fill:#ffffff;fill-opacity:1;stroke:#ffffff;stroke-width:0.99833673000000001;stroke-linecap:round;stroke-linejoin:round;stroke-miterlimit:4;stroke-opacity:0.50196078000000000;stroke-dasharray:none;font-family:Forte;-inkscape-font-specification:Forte"
           d="m -280.15439,487.62628 1.17188,-1.36719 c 1.18488,-1.31509 2.12563,-2.2949 2.82226,-2.93945 0.6966,-0.64451 1.3216,-1.11001 1.875,-1.39648 0.55337,-0.28645 1.11652,-0.42967 1.68946,-0.42969 0.92446,2e-5 1.5755,0.24741 1.95312,0.74219 0.37759,0.4948 0.56639,1.35418 0.56641,2.57812 -2e-5,0.50783 -0.0521,1.25652 -0.15625,2.2461 -0.15627,1.31511 -0.2344,2.55209 -0.23438,3.71093 -2e-5,1.30209 0.0651,2.35678 0.19531,3.16407 0.0911,0.49479 0.22785,0.98958 0.41016,1.48437 0.13019,0.46875 0.19529,0.78776 0.19531,0.95703 -2e-5,0.20834 -0.0781,0.3711 -0.23437,0.48828 -0.40367,0.35157 -0.93752,0.65756 -1.60156,0.91797 -0.66408,0.26042 -1.22398,0.39063 -1.67969,0.39063 -0.74221,0 -1.41603,-0.25391 -2.02149,-0.76172 -0.60548,-0.50781 -1.07423,-1.21094 -1.40625,-2.10938 -0.33204,-0.89843 -0.49806,-1.91405 -0.49804,-3.04687 -2e-5,-0.7552 0.0781,-1.64713 0.23437,-2.67578 l -0.0781,-0.0781 c -0.55991,0.62501 -1.01238,1.1198 -1.35743,1.48438 -0.34506,0.36459 -0.66732,0.70964 -0.96679,1.03515 -1.45834,1.66667 -2.69532,3.17058 -3.71094,4.51172 -0.39063,0.52084 -0.7487,0.97656 -1.07422,1.36719 -0.48177,0.48177 -1.02865,0.72265 -1.64062,0.72266 -0.83334,-10e-6 -1.51042,-0.3125 -2.03125,-0.9375 -0.52084,-0.625 -0.78125,-1.43229 -0.78125,-2.42188 0,-0.61198 0.0716,-1.36067 0.21484,-2.24609 0.14323,-0.88541 0.33529,-1.83268 0.57617,-2.8418 0.24089,-1.00911 0.52734,-2.04752 0.85938,-3.11523 0.33203,-1.0677 0.69335,-2.08332 1.08398,-3.04688 0.59896,-1.60155 1.32812,-2.85155 2.1875,-3.75 0.58593,-0.58592 1.29557,-0.87889 2.12891,-0.87891 1.35416,2e-5 2.03124,0.87893 2.03125,2.63672 -10e-6,1.28908 -0.26694,3.13153 -0.80078,5.52735 z" />
        <path
           style="font-size:40px;font-style:normal;font-variant:normal;font-weight:normal;font-stretch:normal;fill:#ffffff;fill-opacity:1;stroke:#ffffff;stroke-width:0.99833673000000001;stroke-linecap:round;stroke-linejoin:round;stroke-miterlimit:4;stroke-opacity:0.50196078000000000;stroke-dasharray:none;font-family:Forte;-inkscape-font-specification:Forte"
           d="m -201.8125,442.125 c -2.57212,-0.0207 -4.67924,0.26341 -7.21875,1.78125 -2.12944,1.27274 -4.34493,3.28474 -6.21875,4.84375 -2.58946,2.89098 -4.34324,4.68683 -6.59375,7.90625 -1.10285,1.57766 -2.10999,3.22046 -3.09375,4.875 -2.19572,3.69292 -3.796,6.65521 -5.40625,10.65625 -0.779,1.93561 -1.37169,3.93743 -2.0625,5.90625 -1.6836,5.73819 -1.88051,5.84537 -2.9375,11.6875 -0.31768,1.75588 -0.62693,3.53793 -0.8125,5.3125 -0.809,0.30029 -1.67534,0.59321 -2.8125,1 -5.19189,1.7138 -6.6622,1.42238 -7.875,0.34375 -0.18192,-0.16179 -0.38187,-0.369 -0.5625,-0.5625 -0.21028,-0.55918 -0.37167,-1.14825 -0.46875,-1.71875 -0.0391,-0.23437 -0.086,-0.54687 -0.125,-0.9375 -0.0391,-0.39062 -0.0495,-0.73176 -0.0625,-1.03125 -0.0135,-0.29947 -0.0313,-0.72656 -0.0312,-1.3125 -2e-5,-1.11978 0.0469,-2.33593 0.125,-3.625 0.0651,-0.58593 0.0937,-0.83335 0.0937,-0.78125 -2e-5,-0.54687 -0.099,-0.91274 -0.28125,-1.0625 -0.18231,-0.1497 -0.6094,-0.21874 -1.3125,-0.21875 0.53383,-0.85937 0.81248,-1.66926 0.8125,-2.4375 -2e-5,-1.04165 -0.5508,-1.91014 -1.625,-2.59375 -1.07424,-0.68358 -2.45835,-1.03123 -4.125,-1.03125 -1.97918,2e-5 -4.02085,0.70575 -6.15625,2.125 -2.07032,1.38023 -3.78907,3.08334 -5.15625,5.0625 -0.82032,1.21094 -1.46875,2.42449 -1.9375,3.6875 -0.46875,1.26303 -0.6875,2.35678 -0.6875,3.28125 0,1.4974 0.45573,2.74219 1.40625,3.71875 0.95052,0.97656 2.16666,1.46874 3.625,1.46875 0.71614,-10e-6 1.49088,-0.23177 2.34375,-0.6875 0.85286,-0.45573 1.77213,-1.1263 2.78125,-2.03125 1.00911,-0.90495 2.1328,-2.08073 3.34375,-3.5 l 0.0937,0.0937 c -0.0212,0.2145 -0.0625,0.49202 -0.0625,0.84375 0,0.17035 0.0261,0.30703 0.0312,0.46875 0.001,0.0322 -0.001,0.0619 0,0.0937 -0.0404,0.49726 0.025,1.04102 0.15625,1.625 0.0642,0.28583 0.14315,0.58599 0.25,0.875 0.52537,1.42111 1.56297,2.79781 3.1875,3.46875 3.09913,1.27996 4.65789,1.15024 7.625,0.625 2.07985,-0.36817 3.93837,-1.0935 6.1875,-1.6875 0.45036,-0.11894 0.64942,-0.18639 1,-0.28125 -0.0251,0.83244 -0.029,1.66772 -0.0312,2.5 -0.005,1.73299 0.0206,3.49382 0.1875,5.21875 0.16388,1.69361 0.51325,3.35097 0.78125,5.03125 0.99153,3.9005 1.20622,5.58256 2.96875,9.21875 1.17531,2.42472 3.40175,5.75705 5.125,7.84375 2.11205,2.55749 3.76793,3.90988 6.1875,6.125 3.0611,2.39623 6.36485,4.50965 9.875,6.1875 2.8028,1.33973 5.71513,2.37657 8.6875,3.25 5.7709,1.69579 15.77614,4.13034 16,0.8125 0.11691,-1.73268 -5.73085,-1.21688 -8.65625,-1.75 -3.1404,-0.5723 -6.10447,-1.79846 -9.03125,-3.09375 -3.59273,-1.59001 -6.98331,-3.61379 -10.125,-5.96875 -2.57042,-2.22983 -4.09917,-3.3929 -6.34375,-6 -1.83495,-2.13132 -3.92718,-5.14458 -5.1875,-7.65625 -1.76954,-3.52649 -2.04332,-5.27144 -3.09375,-9.0625 -0.284,-1.65569 -0.68188,-3.30002 -0.875,-4.96875 -0.37135,-3.20879 -0.38594,-6.44059 -0.1875,-9.65625 1.6978,-0.65495 2.74185,-1.10385 4.8125,-2.40625 1.22319,-0.76937 2.37932,-1.6588 3.53125,-2.53125 1.21383,-0.91933 2.42321,-1.83352 3.5625,-2.84375 2.59939,-2.3049 4.43653,-4.41255 6.78125,-6.96875 4.91925,-6.01877 9.16545,-12.58232 12.53125,-19.59375 0.55262,-1.1512 1.07037,-2.33522 1.59375,-3.5 1.15386,-2.83109 2.33791,-5.67419 3.0625,-8.65625 0.27785,-1.14352 0.58803,-2.99676 0.46875,-4.21875 -0.0523,-0.53599 -0.27136,-1.04113 -0.40625,-1.5625 -0.27724,-0.3948 -0.43356,-0.88895 -0.8125,-1.1875 -0.42637,-0.33592 -0.95729,-0.6147 -1.5,-0.625 -2.08433,-0.0394 -3.80048,-0.1751 -5.34375,-0.1875 z m -0.125,2.78125 c 0.1319,0.25602 0.28393,0.53325 0.34375,0.8125 0.22523,1.05164 0.0436,2.9793 -0.125,3.96875 -0.14585,0.85604 -0.37338,1.6913 -0.59375,2.53125 -0.73948,2.81849 -0.95571,3.21875 -1.96875,6.0625 -0.46759,1.15498 -0.90395,2.32845 -1.40625,3.46875 -3.09302,7.02164 -7.20354,13.5512 -12.15625,19.40625 -1.10939,1.18942 -2.19067,2.41538 -3.34375,3.5625 -2.58115,2.56783 -5.38533,4.96321 -8.4375,6.96875 0.34454,-2.54089 0.80837,-5.07434 1.40625,-7.5625 0.47226,-1.96541 1.10655,-3.89858 1.65625,-5.84375 0.71856,-1.94973 1.31894,-3.92854 2.125,-5.84375 1.46134,-3.47216 3.56245,-7.36532 5.5625,-10.5625 2.07163,-3.31157 4.05627,-6.06238 6.6875,-8.9375 1.14459,-1.25069 2.41788,-2.4033 3.625,-3.59375 2.50093,-1.86459 3.91939,-3.11535 6.625,-4.4375 z m -54.34375,36.90625 c 0.23436,2e-5 0.42967,0.25653 0.625,0.71875 0.19527,0.46225 0.31249,0.97137 0.3125,1.53125 -1e-5,0.97658 -0.3646,2.01824 -1.09375,3.125 -0.20835,0.39064 -0.31251,0.62765 -0.3125,0.71875 -10e-6,0.26043 0.24217,0.37501 0.75,0.375 0.41665,10e-6 1.09373,-0.11457 2.03125,-0.375 l 0.375,-0.125 0.0937,0.0937 -0.53125,0.40625 c -1.28907,1.32814 -2.46485,2.41146 -3.5,3.21875 -1.03516,0.8073 -1.7474,1.21875 -2.125,1.21875 -0.44271,0 -0.80079,-0.24999 -1.09375,-0.71875 -0.29298,-0.46874 -0.43751,-1.0651 -0.4375,-1.78125 -1e-5,-1.08072 0.35285,-2.30728 1.0625,-3.6875 0.70962,-1.38019 1.66405,-2.71613 2.875,-4.03125 0.42967,-0.44269 0.7604,-0.68748 0.96875,-0.6875 z"
           id="path3966-4-1" />
      </g>
      <text
         sodipodi:linespacing="125%"
         id="text4120-8-5"
         y="458.95135"
         x="-601.35504"
         style="font-size:6.07263470000000010px;font-style:normal;font-variant:normal;font-weight:normal;font-stretch:normal;text-align:start;line-height:125%;writing-mode:lr-tb;text-anchor:start;fill:#ffffff;fill-opacity:1;stroke:#ffffff;stroke-width:0.07000000000000001;stroke-linecap:round;stroke-linejoin:round;stroke-miterlimit:4;stroke-opacity:0.50196078000000000;stroke-dasharray:none;font-family:Gill Sans Ultra Bold;-inkscape-font-specification:'Gill Sans Ultra Bold,'"
         xml:space="preserve"><tspan
           style="fill:#ffffff;stroke:#ffffff;stroke-width:0.07000000000000001;stroke-linecap:round;stroke-linejoin:round;stroke-miterlimit:4;stroke-opacity:0.50196078000000000;stroke-dasharray:none;fill-opacity:1"
           id="tspan4124-82-2"
           y="458.95135"
           x="-601.35504"
           sodipodi:role="line">wbms 0.1b</tspan></text>
    </g>
    <g
       id="g3784"
       inkscape:export-xdpi="90"
       inkscape:export-ydpi="90"
       transform="matrix(1.007874,0,0,1.007874,5.4369373,-6.887716)">
      <path
         d="m -673.39919,842.98993 8.10654,0 0,18.59885 c -2e-5,1.8443 -0.24215,3.58573 -0.72636,5.22429 -0.48427,1.63857 -1.24352,3.07145 -2.27772,4.2986 -1.03426,1.22715 -2.11931,2.08901 -3.25517,2.58554 -1.57829,0.69515 -3.47339,1.04272 -5.68533,1.04272 -1.27936,0 -2.67527,-0.10644 -4.18778,-0.3192 -1.51251,-0.21281 -2.77689,-0.63485 -3.79319,-1.26617 -1.01631,-0.63131 -1.94593,-1.52863 -2.78887,-2.69194 -0.84294,-1.16331 -1.41983,-2.36209 -1.7307,-3.59636 -0.50218,-1.98614 -0.75327,-3.74529 -0.75327,-5.27748 l 0,-18.59885 8.10654,0 0,19.04575 c -4e-5,1.70243 0.39754,3.03244 1.19266,3.99002 0.7951,0.95762 1.89808,1.43643 3.30897,1.43643 1.39889,0 2.4959,-0.47171 3.29103,-1.41515 0.79509,-0.94341 1.19264,-2.28052 1.19265,-4.0113 z"
         style="font-size:38.82352829px;font-style:normal;font-variant:normal;font-weight:900;font-stretch:normal;text-align:start;line-height:125%;writing-mode:lr-tb;text-anchor:start;fill:#ffffff;fill-opacity:1;stroke:none;font-family:Arial Black;-inkscape-font-specification:Arial Black Heavy"
         id="path2849-4" />
      <path
         d="m -662.41789,842.98993 7.91245,0 10.32545,17.56428 0,-17.56428 7.98729,0 0,31.75 -7.98729,0 -10.26935,-17.43436 0,17.43436 -7.96855,0 z"
         style="font-size:38.82352829px;font-style:normal;font-variant:normal;font-weight:900;font-stretch:normal;text-align:start;line-height:125%;writing-mode:lr-tb;text-anchor:start;fill:#ffffff;fill-opacity:1;stroke:none;font-family:Arial Black;-inkscape-font-specification:Arial Black Heavy"
         id="path2851-0" />
      <path
         d="m -633.31791,842.98993 8.0539,0 0,31.75 -8.0539,0 z"
         style="font-size:38.82352829px;font-style:normal;font-variant:normal;font-weight:900;font-stretch:normal;text-align:start;line-height:125%;writing-mode:lr-tb;text-anchor:start;fill:#ffffff;fill-opacity:1;stroke:none;font-family:Arial Black;-inkscape-font-specification:Arial Black Heavy"
         id="path2853-9" />
      <path
         d="m -622.53564,864.05887 8.15938,-0.56549 c 0.17667,1.46604 0.53634,2.58303 1.07906,3.35093 0.88343,1.24264 2.14552,1.86395 3.78624,1.86395 1.2242,0 2.1676,-0.31763 2.83023,-0.95291 0.66257,-0.63527 0.99385,-1.37177 0.99387,-2.20952 -2e-5,-0.79584 -0.31554,-1.50789 -0.94654,-2.13622 -0.63105,-0.6283 -2.09508,-1.22167 -4.39205,-1.78019 -3.76101,-0.93544 -6.44295,-2.17807 -8.04575,-3.72788 -1.61548,-1.54979 -2.42321,-3.52544 -2.42321,-5.92695 0,-1.5777 0.41333,-3.06816 1.23999,-4.4714 0.82665,-1.40316 2.06982,-2.50618 3.72945,-3.30903 1.65963,-0.80279 3.93453,-1.20421 6.82472,-1.20423 3.54643,2e-5 6.25042,0.72955 8.11201,2.18856 1.86154,1.45908 2.96902,3.78029 3.32242,6.96364 l -8.08362,0.5236 c -0.21457,-1.38226 -0.66577,-2.38752 -1.35358,-3.01584 -0.68785,-0.62828 -1.63757,-0.94242 -2.84914,-0.94246 -0.99706,4e-5 -1.748,0.23391 -2.2528,0.70161 -0.50487,0.46776 -0.75728,1.03672 -0.75727,1.70688 -10e-6,0.48869 0.20823,0.92851 0.62473,1.31942 0.40385,0.40492 1.36304,0.7819 2.87754,1.13093 3.74838,0.8936 6.43343,1.79765 8.05522,2.71216 1.62177,0.91453 2.80181,2.04897 3.54014,3.4033 0.73829,1.35432 1.10745,2.86923 1.10748,4.54467 -3e-5,1.96867 -0.49224,3.78376 -1.47663,5.44527 -0.98444,1.66149 -2.36011,2.92158 -4.12701,3.78023 -1.76692,0.85868 -3.9945,1.28803 -6.68272,1.28803 -4.72019,0 -7.98897,-1.00527 -9.80635,-3.01583 -1.8174,-2.01055 -2.846,-4.56563 -3.08581,-7.66523 z"
         style="font-size:38.82352829px;font-style:normal;font-variant:normal;font-weight:900;font-stretch:normal;text-align:start;line-height:125%;writing-mode:lr-tb;text-anchor:start;fill:#ffffff;fill-opacity:1;stroke:none;font-family:Arial Black;-inkscape-font-specification:Arial Black Heavy"
         id="path2855-4" />
      <path
         d="m -576.65926,869.49879 -9.94897,0 -1.36898,5.24114 -8.92709,0 10.62383,-31.75 9.5248,0 10.62384,31.75 -9.13918,0 z m -1.83171,-6.86544 -3.1235,-11.41356 -3.10423,11.41356 z"
         style="font-size:38.82352829px;font-style:normal;font-variant:normal;font-weight:900;font-stretch:normal;text-align:start;line-height:125%;writing-mode:lr-tb;text-anchor:start;fill:#ffffff;fill-opacity:1;stroke:none;font-family:Arial Black;-inkscape-font-specification:Arial Black Heavy"
         id="path2857-8" />
      <path
         d="m -535.48863,842.98993 25.64018,0 0,7.84004 -8.60258,0 0,23.90996 -8.435,0 0,-23.90996 -8.6026,0 z"
         style="font-size:38.82352829px;font-style:normal;font-variant:normal;font-weight:900;font-stretch:normal;text-align:start;line-height:125%;writing-mode:lr-tb;text-anchor:start;fill:#ffffff;fill-opacity:1;stroke:none;font-family:Arial Black;-inkscape-font-specification:Arial Black Heavy"
         id="path2861-8" />
      <path
         d="m -563.92283,842.98993 7.91245,0 10.32545,17.56428 0,-17.56428 7.98729,0 0,31.75 -7.98729,0 -10.26935,-17.43436 0,17.43436 -7.96855,0 z"
         style="font-size:38.82352829px;font-style:normal;font-variant:normal;font-weight:900;font-stretch:normal;text-align:start;line-height:125%;writing-mode:lr-tb;text-anchor:start;fill:#ffffff;fill-opacity:1;stroke:none;font-family:Arial Black;-inkscape-font-specification:Arial Black Heavy"
         id="path2851-1-2" />
      <path
         d="m -493.66207,869.49879 -9.94898,0 -1.36897,5.24114 -8.92709,0 10.62383,-31.75 9.52479,0 10.62385,31.75 -9.13918,0 z m -1.83172,-6.86544 -3.12349,-11.41356 -3.10423,11.41356 z"
         style="font-size:38.82352829px;font-style:normal;font-variant:normal;font-weight:900;font-stretch:normal;text-align:start;line-height:125%;writing-mode:lr-tb;text-anchor:start;fill:#ffffff;fill-opacity:1;stroke:none;font-family:Arial Black;-inkscape-font-specification:Arial Black Heavy"
         id="path2857-7-4" />
    </g>
  </g>
</svg>
